<?xml version="1.0" encoding="utf-8"?>
<!-- Generator: Adobe Illustrator 18.0.0, SVG Export Plug-In . SVG Version: 6.00 Build 0)  -->
<!DOCTYPE svg PUBLIC "-//W3C//DTD SVG 1.1//EN" "http://www.w3.org/Graphics/SVG/1.1/DTD/svg11.dtd">
<svg version="1.1" xmlns="http://www.w3.org/2000/svg" xmlns:xlink="http://www.w3.org/1999/xlink" x="0px" y="0px"
	 viewBox="0 0 841.9 595.3" enable-background="new 0 0 841.9 595.3" xml:space="preserve">
<g id="Layer_1">
	<g>
		<text transform="matrix(1 0 0 1 37.7886 94.0849)"><tspan x="0" y="0" font-family="'MyriadPro-Regular'" font-size="12">Team </tspan><tspan x="-14.7" y="14.4" font-family="'MyriadPro-Regular'" font-size="12">Assignment</tspan></text>
		<rect x="20.7" y="78.3" fill="none" stroke="#000000" stroke-miterlimit="10" width="64.6" height="38.9"/>
	</g>
	<g>
		<text transform="matrix(1 0 0 1 79.6422 160.9777)"><tspan x="0" y="0" font-family="'MyriadPro-Regular'" font-size="12">Role </tspan><tspan x="-13.2" y="14.4" font-family="'MyriadPro-Regular'" font-size="12">Allocation</tspan></text>
		<rect x="61" y="145.2" fill="none" stroke="#000000" stroke-miterlimit="10" width="61.8" height="38.9"/>
	</g>
	<g>
		<text transform="matrix(1 0 0 1 161.1279 147.449)"><tspan x="0" y="0" font-family="'MyriadPro-Regular'" font-size="12">Deadline 1</tspan><tspan x="-11.4" y="14.4" font-family="'MyriadPro-Regular'" font-size="12">Team Report &amp; </tspan><tspan x="-5" y="28.8" font-family="'MyriadPro-Regular'" font-size="12">Presentation</tspan></text>
		<rect x="145.5" y="132.6" fill="none" stroke="#000000" stroke-miterlimit="10" width="84.7" height="51.5"/>
	</g>
	<g>
		<text transform="matrix(1.0106 0 0 1 400.6231 176.2469)" font-family="'MyriadPro-Regular'" font-size="11.8746">Programming</text>
		<rect x="389.9" y="161.4" fill="none" stroke="#000000" stroke-miterlimit="10" width="91" height="22.7"/>
	</g>
	<g>
		<text transform="matrix(1 0 0 1 514.8557 176.1636)" font-family="'MyriadPro-Regular'" font-size="12">Testing</text>
		<rect x="505.2" y="161.2" fill="none" stroke="#000000" stroke-miterlimit="10" width="56.3" height="22.9"/>
	</g>
	<g>
		<text transform="matrix(1.0106 0 0 1 278.8662 176.2464)" font-family="'MyriadPro-Regular'" font-size="11.8746">Design</text>
		<rect x="268.2" y="161.4" fill="none" stroke="#000000" stroke-miterlimit="10" width="56.3" height="22.7"/>
	</g>
	<g>
		<text transform="matrix(1 0 0 1 628.5486 147.449)"><tspan x="0" y="0" font-family="'MyriadPro-Regular'" font-size="12">Deadline 2</tspan><tspan x="-23.7" y="14.4" font-family="'MyriadPro-Regular'" font-size="12">Individual Reflective</tspan><tspan x="9.9" y="28.8" font-family="'MyriadPro-Regular'" font-size="12">Report</tspan></text>
		<rect x="599.1" y="132.6" fill="none" stroke="#000000" stroke-miterlimit="10" width="112.5" height="51.5"/>
	</g>
	<g>
		<text transform="matrix(1 0 0 1 774.1897 101.2594)" font-family="'MyriadPro-Regular'" font-size="12">Demo</text>
		<g>
			<rect x="763.3" y="86.3" fill="none" stroke="#000000" stroke-miterlimit="10" width="52.4" height="22.9"/>
		</g>
	</g>
	<g>
		<text transform="matrix(1 0 0 1 375.2336 38.0634)"><tspan x="0" y="0" font-family="'MyriadPro-Regular'" font-size="21">JAFAM </tspan><tspan x="4.5" y="25.2" font-family="'MyriadPro-Regular'" font-size="21">Charts</tspan></text>
		<rect x="359.1" y="16" fill="none" stroke="#000000" stroke-miterlimit="10" width="97.2" height="56.9"/>
	</g>
	<g>
		<text transform="matrix(1 0 0 1 167.9208 212.0309)"><tspan x="0" y="0" font-family="'MyriadPro-Regular'" font-size="12">Time </tspan><tspan x="0" y="14.4" font-family="'MyriadPro-Regular'" font-size="12">Planning</tspan></text>
		<rect x="164.7" y="199" fill="none" stroke="#000000" stroke-miterlimit="10" width="50.8" height="33.3"/>
	</g>
	<g>
		<text transform="matrix(1 0 0 1 167.681 256.4984)" font-family="'MyriadPro-Regular'" font-size="12">Research</text>
		<rect x="164.7" y="242.6" fill="none" stroke="#000000" stroke-miterlimit="10" width="50.8" height="20.8"/>
	</g>
	<g>
		<text transform="matrix(1 0 0 1 172.6668 286.901)"><tspan x="0" y="0" font-family="'MyriadPro-Regular'" font-size="12">Create </tspan><tspan x="0" y="14.4" font-family="'MyriadPro-Regular'" font-size="12">Report</tspan></text>
		<rect x="164.7" y="273.9" fill="none" stroke="#000000" stroke-miterlimit="10" width="50.8" height="33.3"/>
	</g>
	<g>
		<text transform="matrix(1 0 0 1 167.6004 325.7251)"><tspan x="0" y="0" font-family="'MyriadPro-Regular'" font-size="12">Create </tspan><tspan x="0" y="14.4" font-family="'MyriadPro-Regular'" font-size="12">Presentation</tspan></text>
		<rect x="164.7" y="312.7" fill="none" stroke="#000000" stroke-miterlimit="10" width="68.9" height="33.3"/>
	</g>
	<g>
		<line fill="none" stroke="#000000" stroke-miterlimit="10" x1="157" y1="183.7" x2="157" y2="328.6"/>
		<line fill="none" stroke="#000000" stroke-miterlimit="10" x1="157" y1="215.4" x2="165.5" y2="215.4"/>
		<line fill="none" stroke="#000000" stroke-miterlimit="10" x1="157" y1="252.9" x2="165.5" y2="252.9"/>
		<line fill="none" stroke="#000000" stroke-miterlimit="10" x1="157" y1="291.3" x2="165.5" y2="291.3"/>
		<line fill="none" stroke="#000000" stroke-miterlimit="10" x1="157" y1="328.6" x2="165.5" y2="328.6"/>
	</g>
	<line fill="none" stroke="#000000" stroke-miterlimit="10" x1="85.2" y1="97.8" x2="763.3" y2="97.8"/>
	<line fill="none" stroke="#000000" stroke-miterlimit="10" x1="108.2" y1="144.9" x2="108.2" y2="97.8"/>
	<line fill="none" stroke="#000000" stroke-miterlimit="10" x1="179.9" y1="132.3" x2="179.9" y2="97.8"/>
	<line fill="none" stroke="#000000" stroke-miterlimit="10" x1="296.3" y1="160.7" x2="296.3" y2="97.8"/>
	<line fill="none" stroke="#000000" stroke-miterlimit="10" x1="440.3" y1="160.7" x2="440.3" y2="97.8"/>
	<line fill="none" stroke="#000000" stroke-miterlimit="10" x1="533.3" y1="161.6" x2="533.3" y2="97.8"/>
	<line fill="none" stroke="#000000" stroke-miterlimit="10" x1="655.3" y1="132.3" x2="655.3" y2="97.8"/>
	<line fill="none" stroke="#000000" stroke-miterlimit="10" x1="407.8" y1="73" x2="407.8" y2="97.8"/>
	<g>
		<text transform="matrix(1.0742 0 0 1 280.9414 290.3989)"><tspan x="0" y="0" font-family="'MyriadPro-Regular'" font-size="11.1715">Decide on </tspan><tspan x="0" y="13.4" font-family="'MyriadPro-Regular'" font-size="11.1715">Target Market</tspan></text>
		<rect x="273.7" y="275.4" fill="none" stroke="#000000" stroke-miterlimit="10" width="83.7" height="36.9"/>
	</g>
	<g>
		<text transform="matrix(1.0365 0 0 1 277.8784 337.8623)"><tspan x="0" y="0" font-family="'MyriadPro-Regular'" font-size="11.5777">Identify Target </tspan><tspan x="0" y="13.9" font-family="'MyriadPro-Regular'" font-size="11.5777">Market Requirements </tspan></text>
		<rect x="273.7" y="323" fill="none" stroke="#000000" stroke-miterlimit="10" width="118.5" height="36.9"/>
	</g>
	<g>
		<text transform="matrix(1.0217 0 0 1 279.4053 385.5993)"><tspan x="0" y="0" font-family="'MyriadPro-Regular'" font-size="11.7453">Decide on </tspan><tspan x="0" y="14.1" font-family="'MyriadPro-Regular'" font-size="11.7453">Platform</tspan></text>
		<rect x="273.7" y="369.4" fill="none" stroke="#000000" stroke-miterlimit="10" width="64.8" height="39.7"/>
	</g>
	<g>
		<text transform="matrix(1.0674 0 0 1 280.875 432.378)"><tspan x="0" y="0" font-family="'MyriadPro-Regular'" font-size="11.2419">Decide on </tspan><tspan x="0" y="13.5" font-family="'MyriadPro-Regular'" font-size="11.2419">Language</tspan></text>
		<rect x="273.7" y="416" fill="none" stroke="#000000" stroke-miterlimit="10" width="67.8" height="39.7"/>
	</g>
	<g>
		<line fill="none" stroke="#000000" stroke-miterlimit="10" x1="196.1" y1="263.5" x2="196.1" y2="268.7"/>
		<line fill="none" stroke="#000000" stroke-miterlimit="10" x1="196.1" y1="268.7" x2="259.4" y2="268.7"/>
		<line fill="none" stroke="#000000" stroke-miterlimit="10" x1="259.4" y1="268.7" x2="259.4" y2="435.4"/>
		<line fill="none" stroke="#000000" stroke-miterlimit="10" x1="259.4" y1="291.3" x2="274.2" y2="291.3"/>
		<line fill="none" stroke="#000000" stroke-miterlimit="10" x1="274.2" y1="341" x2="259.4" y2="341"/>
		<line fill="none" stroke="#000000" stroke-miterlimit="10" x1="259.4" y1="388.2" x2="274.2" y2="388.2"/>
		<line fill="none" stroke="#000000" stroke-miterlimit="10" x1="259.4" y1="435.4" x2="274.2" y2="435.4"/>
	</g>
	<g>
		<text transform="matrix(0.9391 0 0 1 287.3184 200.4654)" font-family="'MyriadPro-Regular'" font-size="12.7781">Page Design</text>
		<rect x="283.6" y="188.2" fill="none" stroke="#000000" stroke-miterlimit="10" width="69.5" height="17"/>
	</g>
	<g>
		<text transform="matrix(0.9391 0 0 1 286.2026 222.7162)" font-family="'MyriadPro-Regular'" font-size="12.7781">Page Linking</text>
		<rect x="283.6" y="210.5" fill="none" stroke="#000000" stroke-miterlimit="10" width="69.5" height="17"/>
	</g>
	<g>
		<text transform="matrix(0.9391 0 0 1 284.627 245.7988)" font-family="'MyriadPro-Regular'" font-size="12.7781">Page Content </text>
		<rect x="283.6" y="233.5" fill="none" stroke="#000000" stroke-miterlimit="10" width="72.3" height="17"/>
	</g>
	<line fill="none" stroke="#000000" stroke-miterlimit="10" x1="275.2" y1="183.7" x2="275.2" y2="241.8"/>
	<line fill="none" stroke="#000000" stroke-miterlimit="10" x1="275.2" y1="241.8" x2="283.6" y2="241.8"/>
	<line fill="none" stroke="#000000" stroke-miterlimit="10" x1="275.2" y1="218.7" x2="283.6" y2="218.7"/>
	<line fill="none" stroke="#000000" stroke-miterlimit="10" x1="275.2" y1="196.7" x2="283.6" y2="196.7"/>
	<line fill="none" stroke="#000000" stroke-miterlimit="10" x1="397.8" y1="184.1" x2="397.8" y2="275.4"/>
	<line fill="none" stroke="#000000" stroke-miterlimit="10" x1="397.8" y1="275.2" x2="409.9" y2="275.2"/>
	<line fill="none" stroke="#000000" stroke-miterlimit="10" x1="397.8" y1="236.4" x2="409.9" y2="236.4"/>
	<line fill="none" stroke="#000000" stroke-miterlimit="10" x1="397.8" y1="217" x2="409.9" y2="217"/>
	<line fill="none" stroke="#000000" stroke-miterlimit="10" x1="397.8" y1="255.8" x2="410" y2="255.8"/>
	<line fill="none" stroke="#000000" stroke-miterlimit="10" x1="397.8" y1="196.3" x2="409.9" y2="196.3"/>
	<g>
		<text transform="matrix(1 0 0 1 414.1729 278.6913)" font-family="'MyriadPro-Regular'" font-size="12">SVG</text>
		<rect x="410.2" y="266.7" fill="none" stroke="#000000" stroke-miterlimit="10" width="28.3" height="17"/>
	</g>
	<g>
		<text transform="matrix(1 0 0 1 414.959 220.5215)" font-family="'MyriadPro-Regular'" font-size="12">CSS</text>
		<rect x="410.2" y="208.5" fill="none" stroke="#000000" stroke-miterlimit="10" width="28.3" height="17"/>
	</g>
	<g>
		<text transform="matrix(1 0 0 1 414.0591 239.8722)" font-family="'MyriadPro-Regular'" font-size="12">PHP</text>
		<rect x="410.2" y="227.8" fill="none" stroke="#000000" stroke-miterlimit="10" width="28.3" height="17"/>
	</g>
	<g>
		<text transform="matrix(1 0 0 1 412.6399 199.8248)" font-family="'MyriadPro-Regular'" font-size="12">HTML</text>
		<rect x="410.2" y="187.8" fill="none" stroke="#000000" stroke-miterlimit="10" width="34" height="17"/>
	</g>
	<g>
		<text transform="matrix(1.0019 0 0 1 414.8345 259.3208)" font-family="'MyriadPro-Regular'" font-size="12">Java Script</text>
		<rect x="410.2" y="247.3" fill="none" stroke="#000000" stroke-miterlimit="10" width="62.5" height="17"/>
	</g>
	<line fill="none" stroke="#000000" stroke-miterlimit="10" x1="609.6" y1="183.7" x2="609.6" y2="354.1"/>
	<line fill="none" stroke="#000000" stroke-miterlimit="10" x1="609.6" y1="353.4" x2="622.4" y2="353.4"/>
	<line fill="none" stroke="#000000" stroke-miterlimit="10" x1="622.4" y1="306.1" x2="609.6" y2="306.1"/>
	<line fill="none" stroke="#000000" stroke-miterlimit="10" x1="609.6" y1="256.9" x2="622.4" y2="256.9"/>
	<line fill="none" stroke="#000000" stroke-miterlimit="10" x1="622.4" y1="208.9" x2="609.6" y2="208.9"/>
	<g>
		<text transform="matrix(1 0 0 1 627.8731 205.1776)"><tspan x="0" y="0" font-family="'MyriadPro-Regular'" font-size="12">SE Issues </tspan><tspan x="0" y="14.4" font-family="'MyriadPro-Regular'" font-size="12">Disscussed </tspan></text>
		<rect x="622.4" y="191.8" fill="none" stroke="#000000" stroke-miterlimit="10" width="68" height="34"/>
	</g>
	<g>
		<text transform="matrix(1 0 0 1 624.8033 246.1541)"><tspan x="0" y="0" font-family="'MyriadPro-Regular'" font-size="12">Managerial </tspan><tspan x="0" y="14.4" font-family="'MyriadPro-Regular'" font-size="12">Responsibilities </tspan><tspan x="0" y="28.8" font-family="'MyriadPro-Regular'" font-size="12">Disscussed</tspan></text>
		<rect x="622.4" y="234.4" fill="none" stroke="#000000" stroke-miterlimit="10" width="85" height="45.4"/>
	</g>
	<g>
		<text transform="matrix(1 0 0 1 626.9802 302.4584)"><tspan x="0" y="0" font-family="'MyriadPro-Regular'" font-size="12">Team Issues </tspan><tspan x="0" y="14.4" font-family="'MyriadPro-Regular'" font-size="12">Disscussed</tspan></text>
		<rect x="622.4" y="289.1" fill="none" stroke="#000000" stroke-miterlimit="10" width="70.9" height="34"/>
	</g>
	<g>
		<text transform="matrix(0.9959 0 0 1 627.21 342.5909)"><tspan x="0" y="0" font-family="'MyriadPro-Regular'" font-size="11.909">Technical </tspan><tspan x="0" y="14.3" font-family="'MyriadPro-Regular'" font-size="11.909">Responsibilities </tspan><tspan x="0" y="28.6" font-family="'MyriadPro-Regular'" font-size="11.909">Disscussed</tspan></text>
		<rect x="622.9" y="329.3" fill="none" stroke="#000000" stroke-miterlimit="10" width="87.9" height="48.2"/>
	</g>
</g>
<g id="Layer_2">
	<rect x="85.2" y="78.3" fill="#FFFFFF" stroke="#000000" stroke-miterlimit="10" width="14.2" height="38.9"/>
	<text transform="matrix(1 0 0 1 89.2445 101.2595)" font-family="'MyriadPro-Regular'" font-size="12">1</text>
	<g>
		<rect x="122.8" y="145.2" fill="none" stroke="#000000" stroke-miterlimit="10" width="14.2" height="38.9"/>
		<text transform="matrix(1 0 0 1 126.7698 168.1773)" font-family="'MyriadPro-Regular'" font-size="12">2</text>
	</g>
	<g>
		<rect x="230.6" y="132.6" fill="none" stroke="#000000" stroke-miterlimit="10" width="14.2" height="51.5"/>
		<text transform="matrix(1 0 0 1 234.6186 161.8488)" font-family="'MyriadPro-Regular'" font-size="12">3</text>
	</g>
	<g>
		<rect x="324.6" y="161.4" fill="none" stroke="#000000" stroke-miterlimit="10" width="14.2" height="22.7"/>
		<text transform="matrix(1 0 0 1 328.5872 176.2832)" font-family="'MyriadPro-Regular'" font-size="12">4</text>
	</g>
	<g>
		<rect x="481" y="161.4" fill="none" stroke="#000000" stroke-miterlimit="10" width="14.2" height="22.7"/>
		<text transform="matrix(1 0 0 1 484.9916 176.2832)" font-family="'MyriadPro-Regular'" font-size="12">5</text>
	</g>
	<g>
		<rect x="562.2" y="161.2" fill="none" stroke="#000000" stroke-miterlimit="10" width="14.2" height="22.9"/>
		<text transform="matrix(1 0 0 1 566.166 176.1636)" font-family="'MyriadPro-Regular'" font-size="12">6</text>
	</g>
	<g>
		<rect x="711.6" y="132.6" fill="none" stroke="#000000" stroke-miterlimit="10" width="14.2" height="51.5"/>
		<text transform="matrix(1 0 0 1 715.5703 161.8487)" font-family="'MyriadPro-Regular'" font-size="12">7</text>
	</g>
	<g>
		<rect x="816" y="86.3" fill="none" stroke="#000000" stroke-miterlimit="10" width="14.2" height="22.9"/>
		<text transform="matrix(1 0 0 1 819.9755 101.2593)" font-family="'MyriadPro-Regular'" font-size="12">8</text>
	</g>
	<g>
		<rect x="215.1" y="199" fill="none" stroke="#000000" stroke-miterlimit="10" width="22.7" height="33.3"/>
		<text transform="matrix(1 0 0 1 219.0036 219.2306)" font-family="'MyriadPro-Regular'" font-size="12">3.2</text>
	</g>
	<g>
		<rect x="215.6" y="242.6" fill="none" stroke="#000000" stroke-miterlimit="10" width="22.7" height="20.8"/>
		<text transform="matrix(1 0 0 1 219.5109 256.4983)" font-family="'MyriadPro-Regular'" font-size="12">3.3</text>
	</g>
	<g>
		<rect x="215.1" y="273.9" fill="none" stroke="#000000" stroke-miterlimit="10" width="22.7" height="33.3"/>
		<text transform="matrix(1 0 0 1 219.0238 294.1011)" font-family="'MyriadPro-Regular'" font-size="12">3.4</text>
	</g>
	<g>
		<rect x="233.5" y="312.7" fill="none" stroke="#000000" stroke-miterlimit="10" width="22.7" height="33.3"/>
		<text transform="matrix(1 0 0 1 237.4387 332.9253)" font-family="'MyriadPro-Regular'" font-size="12">3.5</text>
	</g>
	<rect x="357.3" y="275.4" fill="none" stroke="#000000" stroke-miterlimit="10" width="32.4" height="36.9"/>
	<text transform="matrix(1 0 0 1 361.8095 297.3453)" font-family="'MyriadPro-Regular'" font-size="12">3.3.1</text>
	<g>
		<rect x="392.6" y="323" fill="none" stroke="#000000" stroke-miterlimit="10" width="32.4" height="36.9"/>
		<text transform="matrix(1 0 0 1 397.0587 344.9331)" font-family="'MyriadPro-Regular'" font-size="12">3.3.2</text>
	</g>
	<g>
		<rect x="338.4" y="369.4" fill="none" stroke="#000000" stroke-miterlimit="10" width="32.4" height="39.7"/>
		<text transform="matrix(1 0 0 1 342.8535 392.7216)" font-family="'MyriadPro-Regular'" font-size="12">3.3.3</text>
	</g>
	<g>
		<rect x="341.5" y="416" fill="none" stroke="#000000" stroke-miterlimit="10" width="32.4" height="39.7"/>
		<text transform="matrix(1 0 0 1 346.0062 439.3469)" font-family="'MyriadPro-Regular'" font-size="12">3.3.4</text>
	</g>
	<g>
		<rect x="352.9" y="188.2" fill="none" stroke="#000000" stroke-miterlimit="10" width="22.7" height="17"/>
		<text transform="matrix(1 0 0 1 356.8644 200.2368)" font-family="'MyriadPro-Regular'" font-size="12">4.1</text>
	</g>
	<g>
		<rect x="352.9" y="210.5" fill="none" stroke="#000000" stroke-miterlimit="10" width="22.7" height="17"/>
		<text transform="matrix(1 0 0 1 356.8644 222.488)" font-family="'MyriadPro-Regular'" font-size="12">4.2</text>
	</g>
	<g>
		<rect x="355.5" y="233.5" fill="none" stroke="#000000" stroke-miterlimit="10" width="22.7" height="17"/>
		<text transform="matrix(1 0 0 1 359.3994 245.5709)" font-family="'MyriadPro-Regular'" font-size="12">4.3</text>
	</g>
	<g>
		<rect x="444.9" y="187.8" fill="none" stroke="#000000" stroke-miterlimit="10" width="22.7" height="17"/>
		<text transform="matrix(1 0 0 1 448.8366 199.8249)" font-family="'MyriadPro-Regular'" font-size="12">5.1</text>
	</g>
	<g>
		<rect x="439.4" y="208.5" fill="none" stroke="#000000" stroke-miterlimit="10" width="22.7" height="17"/>
		<text transform="matrix(1 0 0 1 443.3332 220.5214)" font-family="'MyriadPro-Regular'" font-size="12">5.2</text>
	</g>
	<g>
		<rect x="439.4" y="227.8" fill="none" stroke="#000000" stroke-miterlimit="10" width="22.7" height="17"/>
		<g>
			<text transform="matrix(1 0 0 1 443.3332 239.8721)" font-family="'MyriadPro-Regular'" font-size="12">5.3</text>
		</g>
	</g>
	<g>
		<rect x="472.4" y="247.3" fill="none" stroke="#000000" stroke-miterlimit="10" width="22.7" height="17"/>
		<text transform="matrix(1.0019 0 0 1 476.3838 259.3208)" font-family="'MyriadPro-Regular'" font-size="12">5.4</text>
	</g>
	<g>
		<rect x="439.4" y="266.7" fill="none" stroke="#000000" stroke-miterlimit="10" width="22.7" height="17"/>
		<text transform="matrix(1 0 0 1 443.3332 278.6913)" font-family="'MyriadPro-Regular'" font-size="12">5.5</text>
	</g>
	<g>
		<rect x="690" y="191.8" fill="none" stroke="#000000" stroke-miterlimit="10" width="22.7" height="34"/>
		<text transform="matrix(1 0 0 1 693.9185 212.3773)" font-family="'MyriadPro-Regular'" font-size="12">7.1</text>
	</g>
	<g>
		<rect x="707.2" y="234.2" fill="none" stroke="#000000" stroke-miterlimit="10" width="22.7" height="45.4"/>
		<text transform="matrix(1 0 0 1 711.1881 260.3971)" font-family="'MyriadPro-Regular'" font-size="12">7.2</text>
	</g>
	<g>
		<rect x="694" y="289.1" fill="none" stroke="#000000" stroke-miterlimit="10" width="22.7" height="34"/>
		<text transform="matrix(1 0 0 1 697.9306 309.6584)" font-family="'MyriadPro-Regular'" font-size="12">7.3</text>
	</g>
	<g>
		<rect x="710.5" y="329.3" fill="none" stroke="#000000" stroke-miterlimit="10" width="22.7" height="48.2"/>
		<text transform="matrix(1 0 0 1 714.4371 356.9077)" font-family="'MyriadPro-Regular'" font-size="12">7.4</text>
	</g>
</g>
</svg>
